<svg width="22" height="22" viewBox="0 0 22 22" fill="none" xmlns="http://www.w3.org/2000/svg">
<path d="M14.6668 6.41667V3.66667C14.6668 3.42355 14.5703 3.19039 14.3983 3.01849C14.2264 2.84658 13.9933 2.75 13.7502 2.75H8.25016C8.00705 2.75 7.77389 2.84658 7.60198 3.01849C7.43007 3.19039 7.3335 3.42355 7.3335 3.66667V6.41667M11.0002 10.0833V15.5833" stroke="#003FEB" stroke-width="1.3" stroke-linecap="round" stroke-linejoin="round"/>
<path d="M3.6665 6.41663H18.3332M15.6473 18.3975L16.4998 6.41663H5.49984L6.35234 18.3975C6.3686 18.6293 6.47232 18.8463 6.64249 19.0045C6.81267 19.1628 7.03661 19.2505 7.269 19.25H14.7307C14.9631 19.2505 15.187 19.1628 15.3572 19.0045C15.5274 18.8463 15.6311 18.6293 15.6473 18.3975Z" stroke="#003FEB" stroke-width="1.3" stroke-linecap="round" stroke-linejoin="round"/>
</svg>
