<svg width="27" height="23" viewBox="0 0 27 23" fill="none" xmlns="http://www.w3.org/2000/svg">
<path d="M10.5098 5.88989L17.5002 9.93528L24.4431 5.91364" stroke="#4A4D52" stroke-width="1.3" stroke-linecap="round" stroke-linejoin="round"/>
<path d="M17.5 17.1079V9.92749" stroke="#4A4D52" stroke-width="1.3" stroke-linecap="round" stroke-linejoin="round"/>
<path d="M15.8613 1.96339L11.6338 4.30673C10.6758 4.83714 9.89209 6.16714 9.89209 7.25964V11.7325C9.89209 12.825 10.6758 14.155 11.6338 14.6854L15.8613 17.0367C16.7637 17.5354 18.2442 17.5354 19.1467 17.0367L23.3742 14.6854C24.3321 14.155 25.1158 12.825 25.1158 11.7325V7.25964C25.1158 6.16714 24.3321 4.83714 23.3742 4.30673L19.1467 1.95548C18.2362 1.45673 16.7637 1.45673 15.8613 1.96339Z" stroke="#4A4D52" stroke-width="1.3" stroke-linecap="round" stroke-linejoin="round"/>
<path d="M4 15H12M4 15L7.33333 11.6666M4 15L7.33333 18.3333" stroke="#6122EC" stroke-width="1.3" stroke-linecap="round" stroke-linejoin="round"/>
</svg>
