<svg width="19" height="19" viewBox="0 0 19 19" fill="none" xmlns="http://www.w3.org/2000/svg">
<path d="M3.95833 9.50004C3.9597 8.41026 4.28235 7.34507 4.88594 6.4377C5.48952 5.53033 6.34724 4.82107 7.35182 4.39862C8.35639 3.97618 9.46323 3.8593 10.5339 4.06262C11.6045 4.26594 12.5915 4.78041 13.3712 5.54171H11.0833C10.8734 5.54171 10.672 5.62512 10.5235 5.77358C10.3751 5.92205 10.2917 6.12341 10.2917 6.33337C10.2917 6.54334 10.3751 6.7447 10.5235 6.89317C10.672 7.04163 10.8734 7.12504 11.0833 7.12504H15.105C15.3038 7.10909 15.4893 7.01869 15.6243 6.87191C15.7593 6.72514 15.834 6.53281 15.8333 6.33337V2.37504C15.8333 2.16508 15.7499 1.96371 15.6015 1.81525C15.453 1.66678 15.2516 1.58337 15.0417 1.58337C14.8317 1.58337 14.6303 1.66678 14.4819 1.81525C14.3334 1.96371 14.25 2.16508 14.25 2.37504V4.21171C13.2262 3.29601 11.9596 2.69575 10.6026 2.48318C9.24564 2.27061 7.85613 2.4548 6.6014 3.01358C5.34666 3.57236 4.28018 4.4819 3.53035 5.6327C2.78051 6.7835 2.3793 8.12651 2.375 9.50004C2.375 9.71 2.45841 9.91137 2.60687 10.0598C2.75534 10.2083 2.9567 10.2917 3.16667 10.2917C3.37663 10.2917 3.57799 10.2083 3.72646 10.0598C3.87493 9.91137 3.95833 9.71 3.95833 9.50004Z" fill="#003FEB"/>
<path d="M15.8332 8.70837C15.6232 8.70837 15.4218 8.79178 15.2734 8.94025C15.1249 9.08871 15.0415 9.29008 15.0415 9.50004C15.0401 10.5898 14.7175 11.655 14.1139 12.5624C13.5103 13.4698 12.6526 14.179 11.648 14.6015C10.6434 15.0239 9.53661 15.1408 8.46596 14.9375C7.39531 14.7341 6.40838 14.2197 5.62859 13.4584H7.91651C8.12647 13.4584 8.32783 13.375 8.4763 13.2265C8.62477 13.078 8.70817 12.8767 8.70817 12.6667C8.70817 12.4567 8.62477 12.2554 8.4763 12.1069C8.32783 11.9584 8.12647 11.875 7.91651 11.875H3.89484C3.69604 11.891 3.51059 11.9814 3.37556 12.1282C3.24053 12.2749 3.16587 12.4673 3.16651 12.6667V16.625C3.16651 16.835 3.24992 17.0364 3.39838 17.1848C3.54685 17.3333 3.74821 17.4167 3.95817 17.4167C4.16814 17.4167 4.3695 17.3333 4.51797 17.1848C4.66643 17.0364 4.74984 16.835 4.74984 16.625V14.7884C5.77361 15.7041 7.04023 16.3043 8.39721 16.5169C9.7542 16.7295 11.1437 16.5453 12.3984 15.9865C13.6532 15.4277 14.7197 14.5182 15.4695 13.3674C16.2193 12.2166 16.6205 10.8736 16.6248 9.50004C16.6248 9.29008 16.5414 9.08871 16.393 8.94025C16.2445 8.79178 16.0431 8.70837 15.8332 8.70837Z" fill="#003FEB"/>
</svg>
