<svg width="37" height="37" viewBox="0 0 37 37" fill="none" xmlns="http://www.w3.org/2000/svg">
<path d="M18.4999 7.40002C19.9022 7.40002 21.0122 8.92072 22.2406 9.44612C23.469 9.97152 25.393 9.67922 26.3106 10.6708C27.2282 11.6624 27.0099 13.4754 27.5353 14.7593C28.0607 16.0432 29.5999 17.0977 29.5999 18.5C29.5999 19.9023 28.0792 21.0123 27.5538 22.2407C27.0284 23.4691 27.3207 25.3931 26.3291 26.3107C25.393 27.2431 23.5245 27.01 22.2591 27.5354C20.9937 28.0608 19.9022 29.6 18.4999 29.6C17.0976 29.6 15.9876 28.0793 14.7592 27.5539C13.5308 27.0285 11.6068 27.3208 10.6892 26.3292C9.7568 25.3931 9.9899 23.5246 9.4645 22.2592C8.9391 20.9938 7.3999 19.9023 7.3999 18.5C7.3999 17.0977 8.9206 15.9877 9.446 14.7593C9.9714 13.5309 9.6791 11.6069 10.6707 10.6893C11.6623 9.77172 13.4753 9.99002 14.7592 9.44612C16.0431 8.90222 17.0976 7.40002 18.4999 7.40002ZM18.4999 10.9039C16.9975 10.9039 15.5289 11.3494 14.2797 12.1841C13.0306 13.0188 12.0569 14.2051 11.482 15.5931C10.9071 16.9811 10.7567 18.5084 11.0498 19.9819C11.3429 21.4554 12.0663 22.8089 13.1286 23.8713C14.191 24.9336 15.5445 25.6571 17.018 25.9502C18.4915 26.2433 20.0188 26.0928 21.4068 25.5179C22.7948 24.943 23.9811 23.9694 24.8158 22.7202C25.6505 21.471 26.096 20.0024 26.096 18.5C26.0901 16.4872 25.288 14.5585 23.8647 13.1352C22.4414 11.712 20.5127 10.9098 18.4999 10.9039ZM22.0223 15.1367L22.7623 15.8397C22.8394 15.94 22.8812 16.0629 22.8812 16.1894C22.8812 16.3158 22.8394 16.4388 22.7623 16.539L18.0485 21.7708C17.957 21.8765 17.8431 21.9606 17.7151 22.0169C17.5872 22.0732 17.4483 22.1004 17.3085 22.0964C17.1695 22.0954 17.0321 22.066 16.9049 22.01C16.7777 21.954 16.6632 21.8726 16.5685 21.7708L14.0229 19.24C13.9733 19.1963 13.9336 19.1425 13.9063 19.0822C13.8791 19.0219 13.8651 18.9565 13.8651 18.8904C13.8651 18.8242 13.8791 18.7588 13.9063 18.6986C13.9336 18.6383 13.9733 18.5845 14.0229 18.5407L14.7629 17.8377C14.8103 17.7871 14.8676 17.7467 14.9313 17.7191C14.9949 17.6915 15.0635 17.6773 15.1329 17.6773C15.2023 17.6773 15.2709 17.6915 15.3345 17.7191C15.3982 17.7467 15.4555 17.7871 15.5029 17.8377L17.3048 19.6877L21.2823 15.1367C21.3297 15.0861 21.387 15.0457 21.4507 15.0181C21.5143 14.9905 21.5829 14.9763 21.6523 14.9763C21.7217 14.9763 21.7903 14.9905 21.8539 15.0181C21.9176 15.0457 21.9749 15.0861 22.0223 15.1367Z" fill="#7E848C"/>
</svg>
