<svg width="26" height="26" viewBox="0 0 26 26" fill="none" xmlns="http://www.w3.org/2000/svg">
<path d="M13.0001 14.0199C12.9383 14.0199 12.8772 14.0062 12.8168 13.9796L3.5322 9.82476C3.35735 9.74676 3.2462 9.56801 3.2501 9.36846C3.254 9.17151 3.37425 8.99276 3.5491 8.92451L12.835 5.23185C12.8883 5.21105 12.9435 5.2 13.0001 5.2C13.056 5.2 13.1119 5.21105 13.1652 5.23185L22.4504 8.92321C22.6292 8.99471 22.7462 9.16891 22.7501 9.36716C22.7553 9.56736 22.6441 9.74676 22.468 9.82476L13.1827 13.9815C13.1249 14.0069 13.0625 14.0199 13.0001 14.0199ZM4.957 9.40421L12.9773 12.9935L21.0432 9.40421L13.0001 6.20685L4.957 9.40421Z" fill="#3F3F3F"/>
<path d="M3.53242 13.3185C3.29777 13.2126 3.18792 12.9259 3.28802 12.6796C3.36147 12.5008 3.52982 12.3845 3.71637 12.3845C3.77942 12.3845 3.84052 12.3981 3.89967 12.4248L12.9782 16.4866L22.1023 12.4248C22.1621 12.3975 22.2232 12.3845 22.2862 12.3845C22.4721 12.3845 22.6398 12.4995 22.7126 12.6796C22.8134 12.9259 22.7035 13.2126 22.4682 13.3185L13.0003 17.5552L3.53242 13.3185Z" fill="#3F3F3F"/>
<path d="M3.5323 16.562C3.297 16.4554 3.18715 16.1694 3.2879 15.9244C3.36135 15.7456 3.5297 15.6293 3.71625 15.6293C3.7793 15.6293 3.8404 15.6429 3.89955 15.6689L12.9781 19.7314L22.1021 15.6689C22.1606 15.6436 22.223 15.6293 22.2861 15.6293C22.472 15.6293 22.6397 15.7456 22.7125 15.9244C22.8132 16.1701 22.7034 16.4567 22.4688 16.562L13.0002 20.8L3.5323 16.562Z" fill="#3F3F3F"/>
</svg>
