<svg width="27" height="27" viewBox="0 0 27 27" fill="none" xmlns="http://www.w3.org/2000/svg">
<rect x="8" y="10" width="17" height="11" fill="#FFAEC2"/>
<path d="M25.7535 21.669V9.18537H7.02802V21.669H15.3505V23.7496H11.1892V25.8303H21.5923V23.7496H17.4311V21.669H25.7535ZM9.10863 19.5884V11.266H23.6729V19.5884H9.10863ZM11.1892 7.10476H4.94741V5.02415H11.1892V7.10476ZM13.2699 7.10476V2.94354H2.8668V17.5078H4.94741V23.7496H9.10863V25.8303H2.8668C2.31499 25.8303 1.78578 25.611 1.39559 25.2209C1.0054 24.8307 0.786194 24.3015 0.786194 23.7496V2.94354C0.786194 2.39173 1.0054 1.86252 1.39559 1.47233C1.78578 1.08214 2.31499 0.86293 2.8668 0.86293H13.2699C13.8217 0.86293 14.3509 1.08214 14.7411 1.47233C15.1313 1.86252 15.3505 2.39173 15.3505 2.94354V7.10476H13.2699Z" fill="#F50E46"/>
</svg>
