<svg width="27" height="25" viewBox="0 0 27 25" fill="none" xmlns="http://www.w3.org/2000/svg">
<path fill-rule="evenodd" clip-rule="evenodd" d="M17.1251 0.71875C17.6256 0.71875 18.0314 1.1245 18.0314 1.625V2.83333C18.0314 4.00119 17.0846 4.94792 15.9168 4.94792H14.7085C14.5416 4.94792 14.4064 5.08317 14.4064 5.25V5.55208H15.0502C16.6372 5.55207 17.895 5.55206 18.9097 5.65217C19.9519 5.75497 20.8224 5.96939 21.6095 6.451C21.9819 6.67885 22.328 6.94598 22.6415 7.24781C23.3065 7.88779 23.7229 8.67049 24.0652 9.64125C24.3975 10.5833 24.6845 11.778 25.045 13.2793L26.3676 18.7851C26.9512 21.2149 25.3946 23.6104 22.9516 24.1651C20.895 24.6322 18.7616 23.6596 17.818 21.7846L17.6633 21.4772C17.132 20.4217 16.0199 19.7378 14.7853 19.7378H12.2148C10.9803 19.7378 9.86812 20.4217 9.33686 21.4772L9.18219 21.7846C8.23856 23.6596 6.10518 24.6322 4.04856 24.1651C1.6056 23.6104 0.0489315 21.2149 0.63258 18.7851L1.95508 13.2794C2.31568 11.7781 2.60266 10.5833 2.93494 9.64124C3.27734 8.67049 3.6937 7.88779 4.3586 7.24781C4.67216 6.94598 5.01831 6.67885 5.39072 6.451C6.17783 5.96939 7.04831 5.75497 8.09043 5.65217C9.10521 5.55206 10.363 5.55207 11.9501 5.55208H12.5939V5.25C12.5939 4.08215 13.5406 3.13542 14.7085 3.13542H15.9168C16.0835 3.13542 16.2189 3.00017 16.2189 2.83333V1.625C16.2189 1.1245 16.6246 0.71875 17.1251 0.71875ZM11.9979 7.36458C10.3523 7.36458 9.18384 7.36561 8.26836 7.45592C7.37001 7.54454 6.80099 7.71296 6.3367 7.99705C6.0757 8.15674 5.83391 8.34347 5.61553 8.55367C5.22946 8.92528 4.93507 9.41958 4.64424 10.2442C4.34685 11.0872 4.08069 12.1904 3.7058 13.7512L2.39495 19.2084C2.057 20.6154 2.95013 22.0571 4.44994 22.3976C5.71822 22.6856 7.00501 22.0788 7.56317 20.9697L7.71784 20.6624C8.56549 18.9782 10.3146 17.9253 12.2148 17.9253H14.7853C16.6855 17.9253 18.4347 18.9782 19.2824 20.6624L19.437 20.9697C19.9952 22.0788 21.2819 22.6856 22.5502 22.3976C24.0501 22.0571 24.9432 20.6154 24.6052 19.2084L23.2944 13.7512C22.9195 12.1905 22.6534 11.0872 22.3559 10.2442C22.0652 9.41958 21.7707 8.92528 21.3846 8.55367C21.1663 8.34347 20.9245 8.15674 20.6635 7.99705C20.1991 7.71296 19.6301 7.54454 18.7318 7.45592C17.8163 7.36561 16.6478 7.36458 15.0022 7.36458H11.9979ZM9.27092 10.3854C9.77143 10.3854 10.1772 10.7912 10.1772 11.2917V12.1979H11.0835C11.584 12.1979 11.9897 12.6037 11.9897 13.1042C11.9897 13.6047 11.584 14.0104 11.0835 14.0104H10.1772V14.9167C10.1772 15.4172 9.77143 15.8229 9.27092 15.8229C8.77041 15.8229 8.36467 15.4172 8.36467 14.9167V14.0104H7.45842C6.95791 14.0104 6.55217 13.6047 6.55217 13.1042C6.55217 12.6037 6.95791 12.1979 7.45842 12.1979H8.36467V11.2917C8.36467 10.7912 8.77041 10.3854 9.27092 10.3854Z" fill="#8D07CC"/>
</svg>
