<svg width="28" height="21" viewBox="0 0 28 21" fill="none" xmlns="http://www.w3.org/2000/svg">
<path d="M23.3333 16H4.66665M23.3333 16C24.0697 16 24.6666 15.4031 24.6666 14.6667V2.66668C24.6666 1.9303 24.0697 1.33334 23.3333 1.33334H4.66665C3.93027 1.33334 3.33331 1.93029 3.33331 2.66668V14.6667C3.33331 15.4031 3.93027 16 4.66665 16M23.3333 16H25C25.9205 16 26.6666 16.7461 26.6666 17.6667C26.6666 18.5872 25.9205 19.3333 25 19.3333H2.99998C2.0795 19.3333 1.33331 18.5872 1.33331 17.6667C1.33331 16.7461 2.0795 16 2.99998 16H4.66665" stroke="#EA7000" stroke-width="1.8" stroke-linecap="round" stroke-linejoin="round"/>
</svg>
