<svg width="18" height="27" viewBox="0 0 18 27" fill="none" xmlns="http://www.w3.org/2000/svg">
<path d="M9.81311 21.375C9.81311 21.9963 9.30945 22.5 8.68811 22.5C8.06677 22.5 7.56311 21.9963 7.56311 21.375C7.56311 20.7537 8.06677 20.25 8.68811 20.25C9.30945 20.25 9.81311 20.7537 9.81311 21.375Z" fill="#3AB6FC"/>
<path fill-rule="evenodd" clip-rule="evenodd" d="M5.57655 1.125L5.63127 1.12501C5.63981 1.125 5.64836 1.125 5.6569 1.12501H11.7193C11.7279 1.125 11.7364 1.125 11.745 1.12501L11.7996 1.125C11.8266 1.125 11.8527 1.125 11.8783 1.12501H12.0631C12.0816 1.12501 12.0999 1.12545 12.1181 1.12633C12.2151 1.12773 12.3014 1.13058 12.3827 1.13637C14.6161 1.29538 16.3928 3.07209 16.5517 5.30542C16.5632 5.46595 16.5631 5.64569 16.5631 5.88843V19.3635C16.5631 20.2843 16.5631 21.0444 16.5118 21.6631C16.4584 22.3058 16.3437 22.8963 16.0565 23.4494C15.6296 24.2713 14.9594 24.9415 14.1375 25.3684C13.5844 25.6556 12.9939 25.7703 12.3512 25.8237C11.7325 25.875 10.9725 25.875 10.0517 25.875H7.3245C6.40376 25.875 5.64376 25.875 5.02505 25.8237C4.38228 25.7703 3.79183 25.6556 3.23874 25.3684C2.41685 24.9415 1.74671 24.2713 1.31976 23.4494C1.03245 22.8963 0.917863 22.3058 0.864481 21.6631C0.813091 21.0444 0.813103 20.2843 0.813125 19.3635L0.813114 5.88844C0.81308 5.6457 0.813058 5.46595 0.824488 5.30542C0.983495 3.07209 2.76021 1.29538 4.99353 1.13637C5.07488 1.13058 5.16116 1.12773 5.25807 1.12633C5.27631 1.12545 5.29466 1.12501 5.31312 1.12501H5.498C5.52344 1.125 5.54962 1.125 5.57655 1.125ZM5.61856 3.37501C5.31558 3.37501 5.22307 3.37572 5.15333 3.38069C4.03667 3.4602 3.14831 4.34855 3.06881 5.46522C3.06383 5.53496 3.06312 5.62746 3.06312 5.93045V19.3162C3.06312 20.2961 3.06402 20.9622 3.10676 21.4769C3.14838 21.978 3.22376 22.2338 3.31644 22.4123C3.52991 22.8231 3.86498 23.1582 4.27593 23.3716C4.45433 23.4643 4.71014 23.5397 5.21126 23.5814C5.72584 23.6241 6.39198 23.625 7.37186 23.625H10.0044C10.9842 23.625 11.6503 23.6241 12.165 23.5814C12.6661 23.5397 12.9219 23.4643 13.1004 23.3716C13.5112 23.1582 13.8463 22.8231 14.0598 22.4123C14.1525 22.2338 14.2278 21.978 14.2695 21.4769C14.3122 20.9622 14.3131 20.2961 14.3131 19.3162V5.93045C14.3131 5.62746 14.3124 5.53496 14.3075 5.46522C14.2279 4.34855 13.3395 3.4602 12.2229 3.38069C12.1532 3.37572 12.0606 3.37501 11.7577 3.37501C11.6824 3.37501 11.674 3.37519 11.6683 3.37542C11.5238 3.3809 11.3869 3.44186 11.2862 3.54564C11.2821 3.54971 11.2764 3.55584 11.2261 3.61177L10.6763 4.22261L10.6623 4.23812C10.6556 4.24532 10.6427 4.25935 10.6261 4.27598C10.5909 4.31135 10.5277 4.37105 10.4378 4.43027C10.33 4.50122 10.2115 4.55403 10.0867 4.58664C9.98254 4.61385 9.8958 4.62095 9.84607 4.62341C9.82256 4.62457 9.80344 4.62483 9.79376 4.62492L9.77284 4.62501H7.6035L7.58246 4.62492C7.57279 4.62483 7.55366 4.62457 7.53026 4.62341C7.48043 4.62095 7.39369 4.61385 7.28951 4.58664C7.16475 4.55403 7.04618 4.50122 6.9384 4.43027C6.84851 4.37105 6.78529 4.31135 6.75008 4.27598C6.73365 4.25935 6.7206 4.24532 6.71396 4.23812L6.6999 4.22261L6.15017 3.61177C6.09985 3.55584 6.09407 3.54971 6.09011 3.54564C5.98933 3.44186 5.85245 3.3809 5.7079 3.37542C5.70222 3.37519 5.69379 3.37501 5.61856 3.37501Z" fill="#3AB6FC"/>
</svg>
