<svg width="20" height="20" viewBox="0 0 20 20" fill="none" xmlns="http://www.w3.org/2000/svg">
<path d="M18.9954 10.2768L16.4954 4.0268C16.4929 4.02046 16.4898 4.01448 16.4872 4.00818C16.4826 3.99742 16.4779 3.98674 16.4729 3.97618C16.4657 3.96084 16.458 3.94585 16.45 3.93105C16.4447 3.92128 16.4398 3.91133 16.4342 3.90183C16.4214 3.87989 16.4078 3.85861 16.3934 3.83797C16.387 3.82882 16.38 3.82019 16.3733 3.81127C16.3636 3.79834 16.3537 3.78556 16.3433 3.77316C16.3356 3.764 16.3277 3.75503 16.3197 3.74623C16.3089 3.73421 16.2976 3.72261 16.2862 3.71121C16.2785 3.70354 16.271 3.69576 16.2631 3.6884C16.2445 3.67111 16.2253 3.65448 16.2054 3.6388C16.1986 3.63343 16.1913 3.62858 16.1843 3.62339C16.1698 3.61252 16.155 3.60195 16.1399 3.592C16.1303 3.5857 16.1206 3.57979 16.1109 3.57388C16.0974 3.56568 16.0837 3.5579 16.0699 3.55042C16.0596 3.54489 16.0494 3.53928 16.0389 3.53409C16.0231 3.52635 16.007 3.51929 15.9908 3.51242C15.9744 3.5054 15.9577 3.49899 15.9409 3.49293C15.9261 3.48763 15.9113 3.48236 15.8962 3.47778C15.8828 3.4737 15.8692 3.47027 15.8556 3.4668C15.8434 3.46371 15.8312 3.46081 15.8189 3.45822C15.8045 3.45516 15.7901 3.4523 15.7755 3.44993C15.7633 3.44795 15.751 3.44654 15.7386 3.44501C15.7172 3.44242 15.6957 3.44047 15.674 3.43937C15.6577 3.43849 15.6414 3.4375 15.625 3.4375C15.6237 3.4375 15.6224 3.43766 15.6212 3.43766C15.6091 3.43773 15.5969 3.4385 15.5847 3.43903C15.5674 3.43979 15.5503 3.44086 15.5332 3.44254C15.523 3.44357 15.5128 3.44468 15.5025 3.44605C15.4781 3.44925 15.454 3.45337 15.4301 3.45841C15.4273 3.45902 15.4245 3.45921 15.4216 3.45986L15.4161 3.46108L15.4135 3.46165L10.9375 4.45633V3.125C10.9375 2.87636 10.8387 2.6379 10.6629 2.46209C10.4871 2.28627 10.2486 2.1875 10 2.1875C9.75136 2.1875 9.5129 2.28627 9.33709 2.46209C9.16127 2.6379 9.0625 2.87636 9.0625 3.125V4.87297L4.1716 5.95985L4.16958 5.96043C4.14139 5.96676 4.11366 5.97454 4.08634 5.98335C4.07883 5.98579 4.07158 5.98858 4.06414 5.99117C4.04503 5.99789 4.02618 6.0052 4.00761 6.01311C3.99841 6.017 3.9893 6.02085 3.98029 6.02501C3.96133 6.03382 3.94279 6.04336 3.92448 6.05339C3.91445 6.05888 3.90453 6.06454 3.89473 6.07037C3.87672 6.08112 3.85903 6.09234 3.84174 6.10428C3.83251 6.11069 3.82359 6.11744 3.81458 6.12415C3.80119 6.13415 3.78807 6.1445 3.77521 6.1552C3.76709 6.16196 3.759 6.16867 3.75114 6.17569C3.73459 6.19041 3.71864 6.20583 3.70316 6.22173C3.69995 6.22501 3.69651 6.22803 3.69335 6.23138C3.67477 6.25107 3.65723 6.27174 3.64033 6.29307C3.63583 6.29875 3.63167 6.30463 3.62732 6.31042C3.61488 6.32683 3.60299 6.34368 3.59165 6.36097C3.58707 6.36791 3.58261 6.37486 3.57822 6.38191C3.56735 6.3995 3.55713 6.41754 3.54736 6.43593C3.54401 6.4423 3.54035 6.44852 3.53714 6.45497C3.52539 6.47835 3.51441 6.50219 3.50456 6.5268L3.50308 6.53054L3.50201 6.53317L1.00456 12.7768C0.960255 12.8875 0.937494 13.0057 0.9375 13.125C0.9375 14.0728 1.42178 14.8772 2.3011 15.3901C2.93496 15.7451 3.64852 15.9334 4.375 15.9375C5.10148 15.9334 5.81504 15.7451 6.4489 15.3901C7.32822 14.8772 7.8125 14.0728 7.8125 13.125C7.81251 13.0057 7.78974 12.8875 7.74544 12.7768L5.65506 7.55089L9.0625 6.79367V15.9375H8.125C7.87636 15.9375 7.6379 16.0363 7.46209 16.2121C7.28627 16.3879 7.1875 16.6264 7.1875 16.875C7.1875 17.1236 7.28627 17.3621 7.46209 17.5379C7.6379 17.7137 7.87636 17.8125 8.125 17.8125H11.875C12.1236 17.8125 12.3621 17.7137 12.5379 17.5379C12.7137 17.3621 12.8125 17.1236 12.8125 16.875C12.8125 16.6264 12.7137 16.3879 12.5379 16.2121C12.3621 16.0363 12.1236 15.9375 11.875 15.9375H10.9375V6.37703L14.0952 5.67531L12.2546 10.2768C12.2103 10.3875 12.1875 10.5057 12.1875 10.625C12.1875 11.5728 12.6718 12.3772 13.5511 12.8901C14.1834 13.2489 14.898 13.4375 15.625 13.4375C16.352 13.4375 17.0666 13.2489 17.6989 12.8901C18.5782 12.3772 19.0625 11.5728 19.0625 10.625C19.0625 10.5057 19.0397 10.3875 18.9954 10.2768ZM4.375 14.0625C4.08508 14.0625 2.97104 13.9166 2.82772 13.2675L4.375 9.39926L5.92228 13.2675C5.77896 13.9166 4.66492 14.0625 4.375 14.0625ZM15.625 11.5625C15.3351 11.5625 14.221 11.4166 14.0777 10.7675L15.625 6.89926L17.1723 10.7675C17.029 11.4166 15.9149 11.5625 15.625 11.5625Z" fill="#6122EC"/>
</svg>
