<svg width="30" height="30" viewBox="0 0 30 30" fill="none" xmlns="http://www.w3.org/2000/svg">
<path d="M12.9167 20V10L20.8334 15L12.9167 20Z" fill="white"/>
<path d="M15 1.875C18.481 1.875 21.8194 3.25781 24.2808 5.71922C26.7422 8.18064 28.125 11.519 28.125 15C28.125 18.481 26.7422 21.8194 24.2808 24.2808C21.8194 26.7422 18.481 28.125 15 28.125C11.519 28.125 8.18064 26.7422 5.71922 24.2808C3.25781 21.8194 1.875 18.481 1.875 15C1.875 11.519 3.25781 8.18064 5.71922 5.71922C8.18064 3.25781 11.519 1.875 15 1.875ZM15 26.25C17.9837 26.25 20.8452 25.0647 22.955 22.955C25.0647 20.8452 26.25 17.9837 26.25 15C26.25 12.0163 25.0647 9.15483 22.955 7.04505C20.8452 4.93526 17.9837 3.75 15 3.75C12.0163 3.75 9.15483 4.93526 7.04505 7.04505C4.93526 9.15483 3.75 12.0163 3.75 15C3.75 17.9837 4.93526 20.8452 7.04505 22.955C9.15483 25.0647 12.0163 26.25 15 26.25ZM13.5938 18.9956L19.5881 15L13.5938 11.0044V18.9956ZM13.905 8.95687L21.2138 13.83C21.4063 13.9584 21.5643 14.1324 21.6735 14.3365C21.7827 14.5406 21.8398 14.7685 21.8398 15C21.8398 15.2315 21.7827 15.4594 21.6735 15.6635C21.5643 15.8676 21.4063 16.0416 21.2138 16.17L13.905 21.0431C13.6932 21.1843 13.4471 21.2653 13.1929 21.2776C12.9387 21.2899 12.6859 21.233 12.4615 21.1129C12.2371 20.9928 12.0495 20.8141 11.9187 20.5957C11.7879 20.3774 11.7188 20.1276 11.7188 19.8731V10.125C11.7188 9.87048 11.7879 9.62074 11.9187 9.40241C12.0495 9.18407 12.2371 9.00533 12.4615 8.88524C12.6859 8.76514 12.9387 8.70821 13.1929 8.72049C13.4471 8.73278 13.6932 8.81383 13.905 8.955V8.95687Z" fill="white"/>
</svg>
