<svg width="17" height="17" viewBox="0 0 17 17" fill="none" xmlns="http://www.w3.org/2000/svg">
<g clip-path="url(#clip0_715_139)">
<path d="M13.8374 16.3453H2.57438C1.99431 16.3453 1.43799 16.1149 1.02781 15.7047C0.617641 15.2946 0.387207 14.7382 0.387207 14.1582V2.89511C0.387207 2.31504 0.617641 1.75872 1.02781 1.34855C1.43799 0.938373 1.99431 0.707939 2.57438 0.707939H13.8374C14.4175 0.707939 14.9738 0.938373 15.384 1.34855C15.7942 1.75872 16.0246 2.31504 16.0246 2.89511V14.1582C16.0246 14.7382 15.7942 15.2946 15.384 15.7047C14.9738 16.1149 14.4175 16.3453 13.8374 16.3453ZM2.57438 1.58281C2.22633 1.58281 1.89255 1.72107 1.64644 1.96717C1.40034 2.21328 1.26208 2.54707 1.26208 2.89511V14.1582C1.26208 14.5062 1.40034 14.84 1.64644 15.0861C1.89255 15.3322 2.22633 15.4705 2.57438 15.4705H13.8374C14.1855 15.4705 14.5193 15.3322 14.7654 15.0861C15.0115 14.84 15.1497 14.5062 15.1497 14.1582V2.89511C15.1497 2.54707 15.0115 2.21328 14.7654 1.96717C14.5193 1.72107 14.1855 1.58281 13.8374 1.58281H2.57438Z" fill="#3F3F3F"/>
<path d="M3.43349 5.27476C3.31793 5.27276 3.20748 5.22676 3.12466 5.14615C3.04265 5.06412 2.99658 4.95288 2.99658 4.83688C2.99658 4.72089 3.04265 4.60965 3.12466 4.52762C3.20727 4.44679 3.31792 4.40103 3.43349 4.39989H4.3136C4.4291 4.40139 4.53962 4.4471 4.62243 4.52762C4.66319 4.56824 4.69552 4.61651 4.71759 4.66966C4.73966 4.7228 4.75103 4.77978 4.75104 4.83732C4.75104 4.95334 4.70495 5.0646 4.62292 5.14664C4.54088 5.22867 4.42962 5.27476 4.3136 5.27476H3.43349Z" fill="#3F3F3F"/>
<path d="M3.43344 8.96408C3.31807 8.96197 3.20776 8.91634 3.12461 8.83635C3.08387 8.79572 3.05155 8.74744 3.0295 8.6943C3.00745 8.64116 2.99609 8.58418 2.99609 8.52665C2.99609 8.46911 3.00745 8.41214 3.0295 8.35899C3.05155 8.30585 3.08387 8.25758 3.12461 8.21694C3.20742 8.13642 3.31794 8.09071 3.43344 8.08921H4.31355C4.42896 8.09115 4.53932 8.1368 4.62238 8.21694C4.66312 8.25758 4.69544 8.30585 4.71749 8.35899C4.73954 8.41214 4.75089 8.46911 4.75089 8.52665C4.75089 8.58418 4.73954 8.64116 4.71749 8.6943C4.69544 8.74744 4.66312 8.79572 4.62238 8.83635C4.53957 8.91687 4.42905 8.96258 4.31355 8.96408H3.43344Z" fill="#3F3F3F"/>
<path d="M3.43349 12.656C3.31793 12.654 3.20748 12.608 3.12466 12.5274C3.04265 12.4454 2.99658 12.3342 2.99658 12.2182C2.99658 12.1022 3.04265 11.9909 3.12466 11.9089C3.20747 11.8284 3.31799 11.7827 3.43349 11.7812H4.3136C4.4291 11.7827 4.53962 11.8284 4.62243 11.9089C4.66319 11.9495 4.69552 11.9978 4.71759 12.0509C4.73966 12.1041 4.75103 12.1611 4.75104 12.2186C4.75104 12.3346 4.70495 12.4459 4.62292 12.5279C4.54088 12.6099 4.42962 12.656 4.3136 12.656H3.43349Z" fill="#3F3F3F"/>
<path d="M6.94183 5.27301C6.82581 5.27301 6.71455 5.22692 6.63252 5.14489C6.55048 5.06285 6.50439 4.95159 6.50439 4.83557C6.50439 4.71956 6.55048 4.6083 6.63252 4.52626C6.71455 4.44423 6.82581 4.39814 6.94183 4.39814H12.9784C13.0944 4.39814 13.2057 4.44423 13.2877 4.52626C13.3698 4.6083 13.4159 4.71956 13.4159 4.83557C13.4159 4.95159 13.3698 5.06285 13.2877 5.14489C13.2057 5.22692 13.0944 5.27301 12.9784 5.27301H6.94183Z" fill="#3F3F3F"/>
<path d="M6.94183 8.96408C6.82581 8.96408 6.71455 8.91799 6.63252 8.83596C6.55048 8.75392 6.50439 8.64266 6.50439 8.52665C6.50439 8.41063 6.55048 8.29937 6.63252 8.21733C6.71455 8.1353 6.82581 8.08921 6.94183 8.08921H12.9784C13.0944 8.08921 13.2057 8.1353 13.2877 8.21733C13.3698 8.29937 13.4159 8.41063 13.4159 8.52665C13.4159 8.64266 13.3698 8.75392 13.2877 8.83596C13.2057 8.91799 13.0944 8.96408 12.9784 8.96408H6.94183Z" fill="#3F3F3F"/>
<path d="M6.94183 12.6543C6.82581 12.6543 6.71455 12.6082 6.63252 12.5262C6.55048 12.4441 6.50439 12.3329 6.50439 12.2168C6.50439 12.1008 6.55048 11.9896 6.63252 11.9075C6.71455 11.8255 6.82581 11.7794 6.94183 11.7794H12.9784C13.0944 11.7794 13.2057 11.8255 13.2877 11.9075C13.3698 11.9896 13.4159 12.1008 13.4159 12.2168C13.4159 12.3329 13.3698 12.4441 13.2877 12.5262C13.2057 12.6082 13.0944 12.6543 12.9784 12.6543H6.94183Z" fill="#3F3F3F"/>
</g>
<defs>
<clipPath id="clip0_715_139">
<rect width="16.5204" height="17" fill="white"/>
</clipPath>
</defs>
</svg>
