<svg width="17" height="17" viewBox="0 0 17 17" fill="none" xmlns="http://www.w3.org/2000/svg">
<path d="M14.8752 5.66668C15.07 5.66668 15.2293 5.5073 15.2293 5.3125V3.62668C15.2293 3.23711 15.077 2.86168 14.8043 2.58543L12.6793 0.435625C12.4066 0.159375 12.0347 0 11.6452 0H3.23373C2.42623 0 1.77103 0.662303 1.77103 1.47687V5.3125C1.77103 5.5073 1.9304 5.66668 2.12521 5.66668H2.83353V8.85418H2.12517C1.93037 8.85418 1.771 9.01355 1.771 9.20836V15.5231C1.771 16.3377 2.42619 17 3.23369 17H6.72932C6.92412 17 7.08349 16.8406 7.08349 16.6458V15.9375H9.91681V16.6458C9.91681 16.8406 10.0762 17 10.271 17H13.7666C14.5741 17 15.2293 16.3377 15.2293 15.5231V7.79168C15.2293 7.59688 15.0699 7.4375 14.8751 7.4375H14.1668V5.66668H14.8752ZM9.56267 0.708322H10.6252V2.125H9.56267V0.708322ZM8.14599 0.708322H8.85432V2.125H8.14599V0.708322ZM6.37517 0.708322H7.43767V2.125H6.37517V0.708322ZM4.60435 0.708322H5.66685V2.125H4.60435V0.708322ZM13.8127 8.14582H14.521V15.5231C14.5245 15.9446 14.1881 16.2881 13.7666 16.2917H10.6252V15.5834C10.6252 15.3886 10.4658 15.2292 10.271 15.2292H6.72935C6.53455 15.2292 6.37517 15.3886 6.37517 15.5834V16.2917H3.23373C2.81228 16.2881 2.4758 15.9411 2.47935 15.5231V9.5625H3.18767C3.38248 9.5625 3.54185 9.40312 3.54185 9.20832V5.3125C3.54185 5.1177 3.38248 4.95832 3.18767 4.95832H2.47935V1.47687C2.4758 1.05895 2.81228 0.711875 3.23373 0.708322H3.89603V2.47914C3.89603 2.67395 4.0554 2.83332 4.25021 2.83332H10.9794C11.1742 2.83332 11.3336 2.67395 11.3336 2.47914V0.708322H11.6452C11.8436 0.708322 12.0384 0.78977 12.1765 0.931447L14.2979 3.08125C14.4395 3.22645 14.521 3.4248 14.521 3.62668V4.95836H13.8127C13.6179 4.95836 13.4585 5.11773 13.4585 5.31253V7.79171C13.4585 7.98645 13.6179 8.14582 13.8127 8.14582Z" fill="#757575"/>
</svg>
